<?xml version="1.0" standalone="no"?>
<!DOCTYPE svg PUBLIC "-//W3C//DTD SVG 1.1//EN" "http://www.w3.org/Graphics/SVG/1.1/DTD/svg11.dtd" >
<svg xmlns="http://www.w3.org/2000/svg" xmlns:xlink="http://www.w3.org/1999/xlink" version="1.1">
<metadata></metadata>
<defs>
<font id="th_chakra_petchregular" horiz-adv-x="759" >
<font-face units-per-em="2048" ascent="1638" descent="-410" />
<missing-glyph horiz-adv-x="497" />
<glyph unicode="&#xfb01;" horiz-adv-x="501" d="M66 0v774l110 111h148v-74h-117l-68 -68v-190h258v-553h-73v479h-185v-479h-73z" />
<glyph unicode="&#xfb02;" horiz-adv-x="501" d="M66 0v774l110 111h148v-74h-117l-68 -68v-190h111v-74h-111v-479h-73zM324 0v885h73v-885h-73z" />
<glyph horiz-adv-x="0" />
<glyph unicode="&#xd;" horiz-adv-x="452" />
<glyph unicode=" "  horiz-adv-x="497" />
<glyph unicode="&#x09;" horiz-adv-x="497" />
<glyph unicode="&#xa0;" horiz-adv-x="497" />
<glyph unicode="!" horiz-adv-x="253" d="M57 27v39l27 26h37l29 -26v-39l-29 -27h-37zM57 885h93l-19 -701h-55z" />
<glyph unicode="&#x22;" horiz-adv-x="354" d="M66 885h73l-18 -185h-37zM176 885h74l-19 -185h-36z" />
<glyph unicode="#" horiz-adv-x="727" d="M70 184l8 74h110l23 221h-111l9 74h110l19 184h73l-18 -184h147l19 184h73l-18 -184h111l-9 -74h-110l-25 -221h111l-6 -74h-111l-20 -184h-74l20 184h-147l-21 -184h-73l20 184h-110zM262 258h146l24 221h-147z" />
<glyph unicode="$" d="M66 477v223l110 111h148v74h73v-74h129l111 -111v-73h-74v43l-67 67h-289l-68 -67v-162l68 -68h338l110 -108v-221l-110 -111h-148v-74h-73v74h-129l-111 111v73h74v-43l67 -67h289l68 67v160l-68 68h-338z" />
<glyph unicode="%" horiz-adv-x="835" d="M70 555v180l75 76h144l76 -76v-180l-76 -76h-144zM106 0l506 885h86l-508 -885h-84zM135 582l37 -39h90l39 39v127l-39 36h-90l-37 -36v-127zM438 150v180l76 76h143l76 -76v-180l-76 -76h-143zM504 176l37 -39h90l37 39v127l-37 37h-90l-37 -37v-127z" />
<glyph unicode="&#x26;" horiz-adv-x="833" d="M66 111v258l92 92l-56 55v258l111 111h295l110 -111v-74h-73v43l-68 68h-233l-68 -68v-198l68 -66h338v74h73v-74h74v-73h-74v-295l-110 -111h-369zM139 141l68 -67h307l68 67v265h-375l-68 -68v-197z" />
<glyph unicode="'" horiz-adv-x="245" d="M68 885h73l-18 -185h-37z" />
<glyph unicode="(" horiz-adv-x="354" d="M68 -37v957l110 110h74v-72h-43l-68 -67v-897l68 -68h43v-73h-74z" />
<glyph unicode=")" horiz-adv-x="286" d="M0 -74h43l68 68v897l-68 67h-43v72h74l110 -110v-957l-110 -110h-74v73z" />
<glyph unicode="*" horiz-adv-x="462" d="M68 694l98 43l-98 41l36 64l84 -66l-12 109h74l-14 -109l86 66l36 -64l-98 -41l98 -43l-36 -63l-86 65l14 -106h-74l12 106l-84 -65z" />
<glyph unicode="+" horiz-adv-x="829" d="M61 401v74h295v295h74v-295h295v-74h-295v-295h-74v295h-295z" />
<glyph unicode="," horiz-adv-x="309" d="M59 43v59l43 45h62l43 -45v-67l-111 -146h-37l56 111h-13z" />
<glyph unicode="-" horiz-adv-x="540" d="M70 295v74h368v-74h-368z" />
<glyph unicode="." horiz-adv-x="309" d="M59 43v59l43 45h62l43 -45v-59l-43 -43h-62z" />
<glyph unicode="/" horiz-adv-x="696" d="M0 0l508 885h84l-508 -885h-84z" />
<glyph unicode="0" horiz-adv-x="722" d="M66 111v661l110 111h332l110 -109v-663l-110 -111h-332zM139 141l68 -67h270l68 67v602l-66 66h-272l-68 -66v-602z" />
<glyph unicode="1" horiz-adv-x="372" d="M51 739l146 144h73v-883h-73v780l-95 -94z" />
<glyph unicode="2" horiz-adv-x="722" d="M68 0v184l479 439v120l-68 66h-252l-67 -66v-47h-74v76l111 111h313l111 -109v-184l-480 -438v-78h480v-74h-553z" />
<glyph unicode="3" horiz-adv-x="686" d="M66 111v73h73v-43l68 -67h270l68 67v234l-68 67h-227v74h227l68 66v161l-68 66h-252l-67 -66v-43h-74v72l111 111h313l110 -109v-223l-73 -72l73 -73v-295l-110 -111h-332z" />
<glyph unicode="4" horiz-adv-x="722" d="M66 147v148l331 588h148v-662h73v-74h-73v-147h-74v147h-403h-2zM139 221h332v588h-31l-301 -535v-53z" />
<glyph unicode="5" horiz-adv-x="722" d="M66 111v73h73v-43l68 -67h270l68 67v271l-68 67h-411v404h516v-74h-443v-256h369l110 -111v-331l-110 -111h-332z" />
<glyph unicode="6" horiz-adv-x="722" d="M68 111v663l108 109h313l111 -111v-72h-74v43l-65 66h-254l-66 -66v-227l37 37h332l108 -111v-331l-110 -111h-332zM141 141l66 -67h272l66 67v271l-66 67h-270l-68 -67v-271z" />
<glyph unicode="7" horiz-adv-x="722" d="M66 700v183h552v-256l-239 -217v-410h-74v442l240 217v150h-406v-109h-73z" />
<glyph unicode="8" horiz-adv-x="722" d="M68 111v295l92 92l-56 55v221l111 109h258l111 -111v-221l-56 -53l93 -92v-295l-111 -111h-332zM141 141l68 -67h270l68 67v234l-68 67h-270l-68 -67v-234zM178 584l68 -68h196l68 66v161l-68 66h-196l-68 -66v-159z" />
<glyph unicode="9" horiz-adv-x="722" d="M66 772l110 111h332l110 -109v-663l-110 -111h-313l-111 111v73h74v-43l67 -67h254l66 67v228l-37 -37h-332l-108 110zM139 471l68 -65h270l68 67v270l-66 66h-272l-68 -66v-272z" />
<glyph unicode=":" horiz-adv-x="309" d="M59 43v59l43 45h62l43 -45v-59l-43 -43h-62zM59 449v59l43 43h62l43 -43v-59l-43 -46h-62z" />
<glyph unicode=";" horiz-adv-x="309" d="M59 43v59l43 45h62l43 -45v-67l-111 -146h-37l56 111h-13zM59 449v59l43 43h62l43 -43v-59l-43 -46h-62z" />
<glyph unicode="&#x3c;" horiz-adv-x="829" d="M61 309v111l664 311v-80l-590 -278v-17l590 -276v-82z" />
<glyph unicode="=" horiz-adv-x="829" d="M61 272v74h664v-74h-664zM61 528v74h664v-74h-664z" />
<glyph unicode="&#x3e;" horiz-adv-x="829" d="M61 -2v82l588 276v17l-588 278v80l662 -311v-111z" />
<glyph unicode="?" horiz-adv-x="724" d="M68 700v74l110 111h332l111 -111v-186l-240 -219v-185h-74v217l240 220v122l-68 68h-270l-68 -68v-43h-73zM297 27v39l27 26h38l27 -26v-39l-27 -27h-38z" />
<glyph unicode="@" horiz-adv-x="944" d="M66 145v334l221 221h331l222 -221v-258l-113 -110h-145v73l-74 -73h-148l-110 110v185l110 110h185l110 -110v-222h41l70 68v197l-178 178h-271l-178 -178v-273l176 -176h451v-74h-479zM324 252l67 -68h98l93 90v101l-68 67h-123l-67 -67v-123z" />
<glyph unicode="A" d="M66 0v477l239 406h111l239 -406v-477h-73v258h-443v-258h-73zM139 332h443v125l-209 352h-27l-207 -350v-127z" />
<glyph unicode="B" horiz-adv-x="722" d="M66 0v883h405l111 -111v-256l-56 -55l92 -92v-258l-110 -111h-442zM139 74h338l68 67v197l-68 65h-338v-329zM139 479h301l68 66v198l-68 66h-301v-330z" />
<glyph unicode="C" horiz-adv-x="761" d="M68 111v661l110 111h369l110 -111v-74h-73v45l-68 66h-307l-68 -68v-602l68 -65h307l68 67v43h73v-73l-110 -111h-369z" />
<glyph unicode="D" d="M66 0v883h479l110 -111v-661l-110 -111h-479zM139 74h375l68 67v602l-68 66h-375v-735z" />
<glyph unicode="E" horiz-adv-x="722" d="M68 111v661l110 111h440v-74h-409l-68 -68v-262h441v-73h-441v-267l66 -65h411v-74h-440z" />
<glyph unicode="F" horiz-adv-x="722" d="M66 0v772l110 111h442v-74h-411l-68 -68v-262h443v-73h-443v-406h-73z" />
<glyph unicode="G" d="M68 111v661l110 111h367l110 -109v-76h-73v45l-66 66h-309l-66 -68v-602l66 -65h307l68 67v265h-222v73h295v-368l-110 -111h-369z" />
<glyph unicode="H" d="M68 0v883h73v-404h443v404h73v-883h-73v406h-443v-406h-73z" />
<glyph unicode="I" horiz-adv-x="243" d="M66 0v883h73v-883h-73z" />
<glyph unicode="J" horiz-adv-x="686" d="M66 111v147h73v-119l68 -65h233l68 67v742h74v-772l-111 -111h-295z" />
<glyph unicode="K" d="M66 0v883h73v-404h269l174 172v232h73v-248l-192 -193l192 -194v-248h-73v231l-174 175h-269v-406h-73z" />
<glyph unicode="L" horiz-adv-x="686" d="M66 0v883h73v-809h443v-74h-516z" />
<glyph unicode="M" horiz-adv-x="980" d="M66 0v883h73l332 -781l332 781h74v-883h-74v696l-295 -696h-74l-295 694v-694h-73z" />
<glyph unicode="N" d="M66 0v883h73l443 -740v740h73v-883h-73l-443 739v-739h-73z" />
<glyph unicode="O" horiz-adv-x="794" d="M63 111v661l111 111h406l110 -111v-661l-110 -111h-406zM137 139l68 -65h344l67 67v602l-67 66h-344l-68 -68v-602z" />
<glyph unicode="P" horiz-adv-x="722" d="M68 0v883h440l110 -111v-258l-110 -111h-369v-403h-71zM139 477h338l68 68v198l-66 66h-340v-332z" />
<glyph unicode="Q" horiz-adv-x="792" d="M63 111v661l111 111h406l110 -111v-661l-65 -66l110 -113l-45 -45l-112 113h-404zM137 139l68 -65h344l67 67v602l-67 66h-344l-68 -68v-602z" />
<glyph unicode="R" horiz-adv-x="718" d="M66 0v883h442l108 -111v-256l-73 -74l73 -73v-369h-73v338l-66 65h-338v-403h-73zM139 479h338l66 66v198l-66 66h-338v-330z" />
<glyph unicode="S" horiz-adv-x="761" d="M68 551v221l110 111h350l111 -111v-74h-74v45l-67 66h-289l-68 -68v-159l68 -68h338l110 -108v-295l-110 -111h-350l-111 111v73h74v-45l67 -65h289l68 67v234l-68 67h-338z" />
<glyph unicode="T" d="M68 809v74h587v-74h-256v-809h-73v809h-258z" />
<glyph unicode="U" d="M66 111v772h73v-744l68 -65h307l68 67v742h73v-772l-110 -111h-369z" />
<glyph unicode="V" horiz-adv-x="761" d="M68 406v477h73v-457l207 -352h27l209 350v459h73v-477l-239 -406h-111z" />
<glyph unicode="W" horiz-adv-x="1050" d="M63 403v480h74v-467l158 -342h16l158 342v467h74v-467l157 -342h17l157 342v467h74v-480l-186 -403h-107l-149 324l-150 -324h-106z" />
<glyph unicode="X" horiz-adv-x="761" d="M70 0v248l192 192l-192 195v248h71v-232l174 -174h97l172 174v232h73v-248l-192 -195l192 -192v-248h-73v231l-172 172h-97l-174 -172v-231h-71z" />
<glyph unicode="Y" d="M66 627v256h73v-221l223 -191l220 188v224h73v-258l-258 -219v-406h-73v408z" />
<glyph unicode="Z" horiz-adv-x="761" d="M68 0v184l516 545v80h-516v74h589v-185l-516 -544v-80h516v-74h-589z" />
<glyph unicode="[" horiz-adv-x="356" d="M70 -147v1177h184v-74h-111v-1030h111v-73h-184z" />
<glyph unicode="\" horiz-adv-x="593" d="M0 885h84l508 -885h-84z" />
<glyph unicode="]" horiz-adv-x="288" d="M0 -74h111v1030h-111v74h184v-1177h-184v73z" />
<glyph unicode="^" horiz-adv-x="864" d="M59 295l295 590h111l295 -590h-82l-258 516h-21l-258 -516h-82z" />
<glyph unicode="_" d="M68 -59h587v-74h-587v74z" />
<glyph unicode="`" horiz-adv-x="303" d="M51 885h92l56 -185h-37z" />
<glyph unicode="a" d="M66 111v165l110 111h406v98l-68 68h-307l-68 -68v-43h-73v74l110 111h369l110 -111v-516h-73v150l-148 -150h-258zM139 141l68 -67h209l166 166v73h-375l-68 -67v-105z" />
<glyph unicode="b" d="M68 111v774h73v-406l148 148h258l110 -111v-405l-110 -111h-369zM141 141l68 -67h307l68 67v344l-68 68h-209l-166 -166v-246z" />
<glyph unicode="c" horiz-adv-x="761" d="M68 111v405l110 111h369l110 -111v-74h-73v43l-68 68h-307l-68 -68v-344l68 -67h307l68 67v43h73v-73l-110 -111h-369z" />
<glyph unicode="d" horiz-adv-x="761" d="M68 111v405l110 111h258l148 -148v406h73v-774l-110 -111h-369zM141 141l68 -67h307l68 67v246l-166 166h-209l-68 -68v-344z" />
<glyph unicode="e" horiz-adv-x="761" d="M68 111v405l110 111h369l110 -111v-221h-516v-154l68 -67h307l68 67v43h73v-73l-110 -111h-369zM141 369h443v116l-68 68h-307l-68 -68v-116z" />
<glyph unicode="f" horiz-adv-x="428" d="M66 0v774l110 111h148v-74h-117l-68 -68v-190h185v-74h-185v-479h-73z" />
<glyph unicode="g" d="M66 111v405l110 111h369l110 -111v-663l-110 -111h-185v74h154l68 67v264l-148 -147h-258zM139 141l68 -67h209l166 166v245l-68 68h-307l-68 -68v-344z" />
<glyph unicode="h" horiz-adv-x="722" d="M68 0v885h73v-406l148 148h221l111 -111v-516h-74v485l-68 68h-172l-166 -166v-387h-73z" />
<glyph unicode="i" horiz-adv-x="245" d="M59 702v39l27 27h39l27 -27v-39l-27 -26h-39zM68 0v627h73v-627h-73z" />
<glyph unicode="j" horiz-adv-x="264" d="M-53 -186h71l68 67v744h74v-775l-111 -110h-102v74zM76 702v39l26 27h39l27 -27v-39l-27 -26h-39z" />
<glyph unicode="k" horiz-adv-x="722" d="M66 0v885h73v-535h232l174 174v103h73v-119l-192 -195l192 -192v-121h-73v104l-174 172h-232v-276h-73z" />
<glyph unicode="l" horiz-adv-x="243" d="M68 0v885h73v-885h-73z" />
<glyph unicode="m" horiz-adv-x="978" d="M63 0v627h74v-148l148 148h110l74 -74l74 74h221l110 -111v-516h-73v487l-68 66h-160l-67 -66v-487h-74v487l-67 66h-62l-166 -164v-389h-74z" />
<glyph unicode="n" horiz-adv-x="722" d="M66 0v627h73v-148l148 148h221l108 -111v-516h-73v487l-66 66h-174l-164 -164v-389h-73z" />
<glyph unicode="o" horiz-adv-x="761" d="M68 111v405l110 111h369l110 -111v-405l-110 -111h-369zM141 141l68 -67h307l68 67v344l-68 68h-307l-68 -68v-344z" />
<glyph unicode="p" horiz-adv-x="761" d="M68 -256v772l110 111h369l110 -111v-405l-110 -111h-406v-256h-73zM141 74h375l68 67v344l-68 68h-307l-68 -68v-411z" />
<glyph unicode="q" d="M68 111v405l110 111h369l110 -111v-772h-73v256h-406zM141 141l68 -67h375v411l-68 68h-307l-68 -68v-344z" />
<glyph unicode="r" horiz-adv-x="573" d="M66 0v627h73v-148l148 148h184v-74h-168l-164 -164v-389h-73z" />
<glyph unicode="s" horiz-adv-x="761" d="M68 387v129l110 111h350l111 -111v-74h-74v43l-67 68h-289l-68 -68v-67l68 -68h338l110 -108v-131l-110 -111h-350l-111 111v73h74v-43l67 -67h289l68 67v70l-68 65h-338z" />
<glyph unicode="t" horiz-adv-x="425" d="M66 111v772h73v-258h185v-74h-185v-412l68 -67h117v-72h-148z" />
<glyph unicode="u" horiz-adv-x="724" d="M68 109v516h73v-486l68 -67h172l166 166v387h74v-625h-74v147l-148 -147h-221z" />
<glyph unicode="v" horiz-adv-x="684" d="M66 276v351h73v-342l156 -211h57l156 211v342h74v-351l-203 -276h-111z" />
<glyph unicode="w" horiz-adv-x="980" d="M68 276v351h73v-346l123 -207h47l125 207v346h74v-346l123 -207h47l123 207v346h74v-351l-166 -276h-109l-129 215l-131 -215h-109z" />
<glyph unicode="x" d="M66 0v121l194 192l-194 195v119h73v-103l174 -174h95l174 174v103h73v-119l-192 -195l192 -192v-121h-73v104l-174 172h-95l-174 -172v-104h-73z" />
<glyph unicode="y" horiz-adv-x="761" d="M68 111v516h73v-486l68 -67h209l166 166v387h73v-774l-110 -111h-185v74h154l68 67v264l-148 -147h-258z" />
<glyph unicode="z" d="M68 0v147l516 359v47h-516v74h589v-148l-516 -358v-47h516v-74h-589z" />
<glyph unicode="{" horiz-adv-x="462" d="M63 442l111 111v367l111 110h73v-74h-43l-67 -67v-367l-80 -80l80 -80v-370l67 -66h43v-73h-73l-111 108v371z" />
<glyph unicode="|" horiz-adv-x="243" d="M66 -258v1325h73v-1325h-73z" />
<glyph unicode="}" horiz-adv-x="397" d="M0 -74h43l68 68v366l79 80l-79 80v369l-68 67h-43v74h74l110 -110v-369l111 -111l-111 -110v-367l-110 -110h-74v73z" />
<glyph unicode="~" horiz-adv-x="757" d="M66 440v74l110 111h74l235 -111h27l68 68v43h73v-74l-110 -111h-74l-236 111h-28l-66 -68v-43h-73z" />
<glyph unicode="&#xa1;" horiz-adv-x="253" d="M57 -258l19 700h55l19 -700h-93zM57 561v37l27 27h39l27 -27v-37l-27 -29h-39z" />
<glyph unicode="&#xa2;" horiz-adv-x="684" d="M66 111v587l110 111h111v74h73v-74h111l111 -111v-73h-74v43l-68 67h-233l-68 -67v-527l68 -67h233l68 67v43h74v-73l-111 -111h-111v-74h-73v74h-111z" />
<glyph unicode="&#xa3;" horiz-adv-x="790" d="M63 0v74l148 147v185h-148v73h148v295l111 111h221l108 -111v-74h-71v43l-68 68h-160l-67 -68v-264h147v-73h-147v-216l-117 -116h520v-74h-625z" />
<glyph unicode="&#xa4;" horiz-adv-x="817" d="M51 162l66 65l-29 31v369l29 28l-66 66l53 53l66 -67l29 30h368l29 -30l66 67l53 -53l-66 -66l29 -28v-369l-29 -31l66 -65l-53 -51l-66 65l-29 -29h-368l-29 29l-66 -65zM162 289l67 -68h308l67 68v307l-67 68h-308l-67 -68v-307z" />
<glyph unicode="&#xa5;" horiz-adv-x="761" d="M68 629v254h73v-221l221 -191l222 188v224h73v-258l-194 -164h121v-74h-185v-74h185v-73h-185v-240h-73v240h-185v73h185v74h-185v74h123z" />
<glyph unicode="&#xa6;" horiz-adv-x="245" d="M70 -258v627h71v-627h-71zM70 442v588h71v-588h-71z" />
<glyph unicode="&#xa7;" horiz-adv-x="686" d="M68 369v110l73 74l-73 74v147l110 111h258l111 -111v-74h-74v43l-67 68h-197l-68 -68v-86l68 -67h225l150 -148v-110l-74 -74l74 -74v-147l-111 -111h-258l-111 111v74h74v-43l68 -68h196l68 68v88l-68 65h-227zM141 399l105 -104h196l68 67v50l-104 104h-197l-68 -67 v-50z" />
<glyph unicode="&#xa8;" horiz-adv-x="503" d="M61 997v56l39 39h56l39 -39v-56l-39 -39h-56zM268 997v56l39 39h55l39 -39v-56l-39 -39h-55z" />
<glyph unicode="&#xa9;" horiz-adv-x="905" d="M66 258v367l184 184h368l185 -182v-369l-185 -184h-368zM139 289l142 -142h307l141 142v307l-141 139h-307l-142 -141v-305zM213 332v219l111 111h219l112 -111v-72h-73v41l-70 70h-158l-67 -70v-158l67 -67h160l68 67v44h73v-74l-110 -111h-221z" />
<glyph unicode="&#xaa;" horiz-adv-x="622" d="M68 426v129l86 86h297v64q-4 4 -23.5 22t-21.5 23h-224q-4 -4 -23.5 -22.5t-23.5 -22.5v-37h-67v65l86 86h278l86 -86v-393h-67v100l-101 -100h-196zM135 455l47 -47h150q2 2 19.5 20t39 39.5l40 40l20.5 20.5v43h-269q-4 -2 -23.5 -21.5l-23.5 -23.5v-71z" />
<glyph unicode="&#xab;" horiz-adv-x="618" d="M72 303v74l221 203v-101l-148 -135v-8l148 -135v-101zM293 303v74l221 203v-101l-147 -135v-8l147 -135v-101z" />
<glyph unicode="&#xac;" horiz-adv-x="800" d="M70 406v73h626v-295h-73v222h-553z" />
<glyph unicode="&#xad;" horiz-adv-x="540" d="M70 295v74h368v-74h-368z" />
<glyph unicode="&#xae;" horiz-adv-x="677" d="M66 528v203l153 154h201l153 -154v-201q0 -2 -23.5 -25.5l-52 -52l-52 -52t-25.5 -23.5h-203l-23 23q-24 24 -51.5 52.5t-51 52t-25.5 23.5zM117 549l121 -121h161l123 123v158l-123 125h-159l-123 -123v-162zM227 510v244h142l61 -62v-43l-16 -16l-21 -21q2 -4 8.5 -10 t12.5 -12l16 -17v-65h-49v47l-33 33h-72v-78h-49zM276 635h72l33 35v2l-33 33h-72v-70z" />
<glyph unicode="&#xaf;" horiz-adv-x="432" d="M70 989v74h258v-74h-258zM70 989v74h258v-74h-258z" />
<glyph unicode="&#xb0;" horiz-adv-x="362" d="M72 700v107l75 76h107l76 -76v-107l-76 -75h-107zM135 727l39 -37h53l37 37v53l-37 39h-53l-39 -39v-53z" />
<glyph unicode="&#xb1;" horiz-adv-x="829" d="M63 0v74h293v295h-293v73h293v295h74v-295h295v-73h-295v-295h295v-74h-662z" />
<glyph unicode="&#xb2;" horiz-adv-x="507" d="M70 365v120q74 68 131 121q49 45 90 83t43 40v55l-29 29h-129q-2 -2 -13 -14.5t-16 -14.5v-32h-67v59l70 70h184l69 -68v-115l-131 -118q-49 -45 -91 -83t-44 -40v-25h266v-67h-333z" />
<glyph unicode="&#xb3;" horiz-adv-x="507" d="M70 434v60h67v-33q4 -2 15.5 -13.5l15.5 -15.5h137q2 0 14.5 13.5t16.5 15.5v119q-4 4 -15.5 15t-15.5 13h-133v70h133q4 2 15.5 13t15.5 16v77q-4 2 -15.5 13.5l-15.5 15.5h-127q-4 -4 -15 -15.5t-16 -13.5v-32h-67v59l70 70h184l69 -68v-135l-14 -14q-6 -6 -12 -11.5 t-8 -9.5q2 -4 8 -9t12 -11l14 -15v-174l-69 -69h-195z" />
<glyph unicode="&#xb4;" horiz-adv-x="319" d="M68 932l55 147h92l-111 -147h-36z" />
<glyph unicode="&#xb5;" horiz-adv-x="722" d="M68 -258v883h73v-486l68 -65h172l166 164v387h74v-625h-74v147l-148 -147h-221l-37 37v-295h-73z" />
<glyph unicode="&#xb6;" horiz-adv-x="571" d="M63 598v168l119 119h140v-1143h-74v737h-66zM395 -258v1143h74v-1143h-74z" />
<glyph unicode="&#xb7;" horiz-adv-x="325" d="M74 412v59l43 43h61l43 -43v-59l-43 -43h-61z" />
<glyph unicode="&#xb8;" horiz-adv-x="352" d="M63 -88l105 129l35 -23l-45 -79h16l76 -74v-98l-76 -76h-111v63h84l37 39v43l-37 39h-84v37z" />
<glyph unicode="&#xb9;" horiz-adv-x="317" d="M57 788l95 95h61v-518h-68v413q-6 -4 -12 -11t-12 -13l-15 -15z" />
<glyph unicode="&#xba;" horiz-adv-x="507" d="M72 553v182l75 74h181l75 -74v-182l-75 -74h-181zM135 580l39 -37h127l37 37v127l-37 38h-127l-39 -38v-127z" />
<glyph unicode="&#xbb;" horiz-adv-x="618" d="M74 100v99l147 135v10l-147 135v101l221 -203v-74zM295 100v99l147 135v10l-147 135v101l221 -203v-74z" />
<glyph unicode="&#xbc;" horiz-adv-x="942" d="M63 791l95 94h59v-518h-67v413l-39 -39zM137 0l506 885h86l-508 -885h-84zM506 82v96v2l188 336h103v-366h41v-68h-41v-82h-68v82h-223zM573 150h156v292q-4 -8 -28.5 -52t-52 -94t-51.5 -91t-24 -43v-12z" />
<glyph unicode="&#xbd;" horiz-adv-x="1048" d="M61 791l95 94h59v-516h-68v411q-4 -4 -11 -10t-13 -12l-14 -15zM135 0l508 885h84l-506 -885h-86zM612 0v121q74 68 131 121q49 45 90 82.5t44 40.5v55q-4 2 -15.5 13t-13.5 16h-129q-2 -4 -14.5 -15.5t-14.5 -13.5v-35h-67v61l67 70h187l67 -70v-106v-6l-131 -119 q-49 -45 -90 -83t-43 -40v-24h264v-68h-332z" />
<glyph unicode="&#xbe;" horiz-adv-x="1124" d="M61 436v62h68v-33l29 -29h139q8 6 14 13q4 4 8.5 9t6.5 7v119q-2 2 -14.5 13t-14.5 15h-133v68h133l29 29v77q-2 4 -13.5 15.5l-15.5 15.5h-129q-2 -4 -13.5 -15t-15.5 -16v-30h-67v59l69 70h185l67 -70v-133l-14 -14q-6 -6 -11.5 -12.5t-9.5 -8.5q4 -4 9.5 -10t11.5 -12 l14 -15v-174l-67 -69h-195zM315 0l508 885h84l-506 -885h-86zM688 82v96v2l189 336h102v-366h41v-68h-41v-82h-68v82h-223zM756 150h155v292q-4 -8 -28.5 -52t-52 -94t-51 -91t-23.5 -43v-12z" />
<glyph unicode="&#xbf;" horiz-adv-x="720" d="M66 39l237 217v186h74v-219l-238 -217v-123l66 -67h270l68 67v43h73v-73l-110 -111h-332l-108 111v186zM295 561v37l27 27h38l27 -27v-37l-27 -29h-38z" />
<glyph unicode="&#xc0;" d="M66 0v477l239 406h111l239 -406v-477h-73v258h-443v-258h-73zM139 332h443v125l-209 352h-27l-207 -350v-127zM249 1090l62 61l160 -160l-27 -24z" />
<glyph unicode="&#xc1;" d="M66 0v477l239 406h111l239 -406v-477h-73v258h-443v-258h-73zM139 332h443v125l-209 352h-27l-207 -350v-127zM251 991l158 160l62 -61l-195 -123z" />
<glyph unicode="&#xc2;" d="M66 0v477l239 406h111l239 -406v-477h-73v258h-443v-258h-73zM139 332h443v125l-209 352h-27l-207 -350v-127zM178 993l160 158h47l158 -158l-25 -26l-157 104l-156 -104z" />
<glyph unicode="&#xc3;" d="M66 0v477l239 406h111l239 -406v-477h-73v258h-443v-258h-73zM139 332h443v125l-209 352h-27l-207 -350v-127zM169 1036l144 105l94 -60l119 57l24 -28l-149 -103l-92 58l-115 -56z" />
<glyph unicode="&#xc4;" d="M66 0v477l239 406h111l239 -406v-477h-73v258h-443v-258h-73zM139 332h443v125l-209 352h-27l-207 -350v-127zM190 1046v56l39 39h56l39 -39v-56l-39 -39h-56zM397 1046v56l39 39h55l39 -39v-56l-39 -39h-55z" />
<glyph unicode="&#xc5;" d="M66 0v477l239 406h111l239 -406v-477h-73v258h-443v-258h-73zM139 332h443v125l-209 352h-27l-207 -350v-127zM249 1032v93l66 63h92l64 -63v-3v-90l-64 -65h-92zM315 1059l27 -27h39l26 27v37l-26 29h-39l-27 -29v-37z" />
<glyph unicode="&#xc6;" horiz-adv-x="1236" d="M63 0v479l480 406h110v-37l37 37h443v-74h-412l-68 -68v-264h443v-73h-443v-265l68 -67h412v-74h-443l-110 111v147h-443v-258h-74zM137 332h443v479h-27l-416 -352v-127z" />
<glyph unicode="&#xc7;" d="M68 111v661l110 111h369l110 -111v-74h-73v45l-68 66h-307l-68 -68v-602l68 -65h307l68 67v43h73v-73l-110 -111h-148l-34 -61h16l76 -74v-98l-76 -76h-111v63h84l37 39v43l-37 39h-84v37l72 88h-164z" />
<glyph unicode="&#xc8;" horiz-adv-x="724" d="M68 111v661l110 111h440v-74h-409l-68 -68v-262h441v-73h-441v-267l66 -65h411v-74h-440zM233 1090l62 61l160 -160l-27 -24z" />
<glyph unicode="&#xc9;" horiz-adv-x="724" d="M68 111v661l110 111h440v-74h-409l-68 -68v-262h441v-73h-441v-267l66 -65h411v-74h-440zM233 991l158 160l62 -61l-195 -123z" />
<glyph unicode="&#xca;" horiz-adv-x="724" d="M68 111v661l110 111h440v-74h-409l-68 -68v-262h441v-73h-441v-267l66 -65h411v-74h-440zM159 993l160 158h47l158 -158l-25 -26l-157 104l-156 -104z" />
<glyph unicode="&#xcb;" horiz-adv-x="724" d="M68 111v661l110 111h440v-74h-409l-68 -68v-262h441v-73h-441v-267l66 -65h411v-74h-440zM172 1046v56l39 39h56l39 -39v-56l-39 -39h-56zM379 1046v56l39 39h55l39 -39v-56l-39 -39h-55z" />
<glyph unicode="&#xcc;" horiz-adv-x="243" d="M-54 1090l62 61l160 -160l-27 -24zM66 0v883h73v-883h-73z" />
<glyph unicode="&#xcd;" horiz-adv-x="243" d="M43 991l158 160l62 -61l-195 -123zM66 0v883h73v-883h-73z" />
<glyph unicode="&#xce;" horiz-adv-x="243" d="M-78 993l160 158h47l158 -158l-25 -26l-157 104l-156 -104zM66 0v883h73v-883h-73z" />
<glyph unicode="&#xcf;" horiz-adv-x="243" d="M-66 1046v56l39 39h56l39 -39v-56l-39 -39h-56zM66 0v883h73v-883h-73zM141 1046v56l39 39h55l39 -39v-56l-39 -39h-55z" />
<glyph unicode="&#xd0;" horiz-adv-x="833" d="M66 406v73h73v404h479l111 -111v-661l-111 -111h-479v406h-73zM213 74h375l67 67v602l-67 66h-375v-330h221v-73h-221v-332z" />
<glyph unicode="&#xd1;" d="M66 0v883h73l443 -740v740h73v-883h-73l-443 739v-739h-73zM169 1036l144 105l94 -60l119 57l24 -28l-149 -103l-92 58l-115 -56z" />
<glyph unicode="&#xd2;" horiz-adv-x="794" d="M63 111v661l111 111h406l110 -111v-661l-110 -111h-406zM137 139l68 -65h344l67 67v602l-67 66h-344l-68 -68v-602zM266 1090l62 61l160 -160l-27 -24z" />
<glyph unicode="&#xd3;" horiz-adv-x="796" d="M63 111v661l111 111h406l110 -111v-661l-110 -111h-406zM137 139l68 -65h344l67 67v602l-67 66h-344l-68 -68v-602zM268 991l158 160l62 -61l-195 -123z" />
<glyph unicode="&#xd4;" horiz-adv-x="796" d="M63 111v661l111 111h406l110 -111v-661l-110 -111h-406zM137 139l68 -65h344l67 67v602l-67 66h-344l-68 -68v-602zM194 993l160 158h47l158 -158l-25 -26l-157 104l-156 -104z" />
<glyph unicode="&#xd5;" horiz-adv-x="796" d="M63 111v661l111 111h406l110 -111v-661l-110 -111h-406zM137 139l68 -65h344l67 67v602l-67 66h-344l-68 -68v-602zM186 1036l144 105l94 -60l119 57l24 -28l-149 -103l-92 58l-115 -56z" />
<glyph unicode="&#xd6;" horiz-adv-x="794" d="M63 111v661l111 111h406l110 -111v-661l-110 -111h-406zM137 139l68 -65h344l67 67v602l-67 66h-344l-68 -68v-602zM206 1046v56l39 39h56l39 -39v-56l-39 -39h-56zM413 1046v56l39 39h55l39 -39v-56l-39 -39h-55z" />
<glyph unicode="&#xd7;" horiz-adv-x="729" d="M63 205l11 11q12 11 29.5 27.5t38 37t42.5 43.5l115 114l-236 236q2 2 9.5 8t14.5 13l14.5 14.5l9.5 9.5q2 -4 38.5 -41t79.5 -80l115 -115l38 38l79 79t78.5 80t38.5 39q2 -2 9 -9.5t14 -14.5t14.5 -13t9.5 -8l-236 -236l115 -114l80 -80t41 -39l-47 -47q-4 4 -40 41 t-79 80l-115 114l-115 -114q-43 -43 -79.5 -80t-38.5 -41z" />
<glyph unicode="&#xd8;" horiz-adv-x="794" d="M66 0l40 68l-40 43v661l110 111h406l14 -15l33 54l63 -39l-43 -68l43 -41v-663l-110 -111h-406l-16 14l-31 -53zM139 139l8 -6l410 670l-6 6h-344l-68 -68v-602zM201 80l6 -6h344l67 67v602l-8 7z" />
<glyph unicode="&#xd9;" d="M66 111v772h73v-744l68 -65h307l68 67v742h73v-772l-110 -111h-369zM249 1090l62 61l160 -160l-27 -24z" />
<glyph unicode="&#xda;" d="M66 111v772h73v-744l68 -65h307l68 67v742h73v-772l-110 -111h-369zM251 991l158 160l62 -61l-195 -123z" />
<glyph unicode="&#xdb;" d="M66 111v772h73v-744l68 -65h307l68 67v742h73v-772l-110 -111h-369zM178 993l160 158h47l158 -158l-25 -26l-157 104l-156 -104z" />
<glyph unicode="&#xdc;" d="M66 111v772h73v-744l68 -65h307l68 67v742h73v-772l-110 -111h-369zM190 1046v56l39 39h56l39 -39v-56l-39 -39h-56zM397 1046v56l39 39h55l39 -39v-56l-39 -39h-55z" />
<glyph unicode="&#xdd;" d="M66 627v256h73v-221l223 -191l220 188v224h73v-258l-258 -219v-406h-73v408zM251 991l158 160l62 -61l-195 -123z" />
<glyph unicode="&#xde;" horiz-adv-x="724" d="M68 0v883h73v-203h369l111 -109v-258l-111 -110h-369v-203h-73zM141 276h338l68 68v197l-68 65h-338v-330z" />
<glyph unicode="&#xdf;" horiz-adv-x="686" d="M66 -258v1030l110 111h258l111 -111v-219l-117 -117l154 -153v-172l-111 -111h-258v74h227l68 67v111l-184 184l147 146v159l-68 68h-196l-68 -66v-1001h-73z" />
<glyph unicode="&#xe0;" d="M66 111v165l110 111h406v98l-68 68h-307l-68 -68v-43h-73v74l110 111h369l110 -111v-516h-73v150l-148 -150h-258zM139 141l68 -67h209l166 166v73h-375l-68 -67v-105zM249 828l62 61l160 -160l-27 -24z" />
<glyph unicode="&#xe1;" d="M66 111v165l110 111h406v98l-68 68h-307l-68 -68v-43h-73v74l110 111h369l110 -111v-516h-73v150l-148 -150h-258zM139 141l68 -67h209l166 166v73h-375l-68 -67v-105zM251 729l158 160l62 -61l-195 -123z" />
<glyph unicode="&#xe2;" d="M66 111v165l110 111h406v98l-68 68h-307l-68 -68v-43h-73v74l110 111h369l110 -111v-516h-73v150l-148 -150h-258zM139 141l68 -67h209l166 166v73h-375l-68 -67v-105zM178 731l160 158h47l158 -158l-25 -26l-157 104l-156 -104z" />
<glyph unicode="&#xe3;" d="M66 111v165l110 111h406v98l-68 68h-307l-68 -68v-43h-73v74l110 111h369l110 -111v-516h-73v150l-148 -150h-258zM139 141l68 -67h209l166 166v73h-375l-68 -67v-105zM169 774l144 105l94 -60l119 57l24 -28l-149 -103l-92 58l-115 -56z" />
<glyph unicode="&#xe4;" d="M66 111v165l110 111h406v98l-68 68h-307l-68 -68v-43h-73v74l110 111h369l110 -111v-516h-73v150l-148 -150h-258zM139 141l68 -67h209l166 166v73h-375l-68 -67v-105zM190 784v56l39 39h56l39 -39v-56l-39 -39h-56zM397 784v56l39 39h55l39 -39v-56l-39 -39h-55z" />
<glyph unicode="&#xe5;" d="M66 111v165l110 111h406v98l-68 68h-307l-68 -68v-43h-73v74l110 111h369l110 -111v-516h-73v150l-148 -150h-258zM139 141l68 -67h209l166 166v73h-375l-68 -67v-105zM249 770v93l66 63h92l64 -63v-3v-90l-64 -65h-92zM315 797l27 -27h39l26 27v37l-26 29h-39l-27 -29 v-37z" />
<glyph unicode="&#xe6;" horiz-adv-x="1275" d="M66 111v165l110 111h406v98l-68 68h-307l-68 -68v-43h-73v74l110 111h369l73 -74l74 74h369l108 -111v-240h-514v-135l66 -67h303v-74h-332l-110 111v39l-148 -150h-258zM139 141l68 -67h209l166 166v73h-375l-68 -67v-105zM655 350h441v135l-66 68h-307l-68 -68v-135z " />
<glyph unicode="&#xe7;" horiz-adv-x="763" d="M68 111v405l110 111h369l110 -111v-74h-73v43l-68 68h-307l-68 -68v-344l68 -67h307l68 67v43h73v-73l-110 -111h-152l-33 -59h17l76 -74v-98l-76 -76h-111v63h84l37 39v43l-37 39h-84v37l70 86h-160z" />
<glyph unicode="&#xe8;" d="M68 111v405l110 111h369l110 -111v-221h-516v-154l68 -67h307l68 67v43h73v-73l-110 -111h-369zM141 369h443v116l-68 68h-307l-68 -68v-116zM251 828l62 61l160 -160l-27 -24z" />
<glyph unicode="&#xe9;" d="M68 111v405l110 111h369l110 -111v-221h-516v-154l68 -67h307l68 67v43h73v-73l-110 -111h-369zM141 369h443v116l-68 68h-307l-68 -68v-116zM253 729l158 160l62 -61l-195 -123z" />
<glyph unicode="&#xea;" d="M68 111v405l110 111h369l110 -111v-221h-516v-154l68 -67h307l68 67v43h73v-73l-110 -111h-369zM141 369h443v116l-68 68h-307l-68 -68v-116zM180 731l160 158h47l158 -158l-25 -26l-157 104l-156 -104z" />
<glyph unicode="&#xeb;" d="M68 111v405l110 111h369l110 -111v-221h-516v-154l68 -67h307l68 67v43h73v-73l-110 -111h-369zM141 369h443v116l-68 68h-307l-68 -68v-116zM192 784v56l39 39h56l39 -39v-56l-39 -39h-56zM399 784v56l39 39h55l39 -39v-56l-39 -39h-55z" />
<glyph unicode="&#xec;" horiz-adv-x="243" d="M-52 828l62 61l160 -160l-27 -24zM68 0v625h73v-625h-73z" />
<glyph unicode="&#xed;" horiz-adv-x="243" d="M45 729l158 160l62 -61l-195 -123zM68 0v625h73v-625h-73z" />
<glyph unicode="&#xee;" horiz-adv-x="243" d="M-74 731l160 158h47l158 -158l-25 -26l-157 104l-156 -104zM68 0v625h73v-625h-73z" />
<glyph unicode="&#xef;" horiz-adv-x="243" d="M-64 784v56l39 39h56l39 -39v-56l-39 -39h-56zM68 0v625h73v-625h-73zM143 784v56l39 39h55l39 -39v-56l-39 -39h-55z" />
<glyph unicode="&#xf0;" horiz-adv-x="761" d="M68 111v405l110 111h258l148 -148v203l-97 -57l-32 55l129 76v129h73v-86l99 55l32 -55l-131 -76v-612l-110 -111h-369zM141 141l68 -67h307l68 67v246l-164 166h-211l-68 -68v-344z" />
<glyph unicode="&#xf1;" horiz-adv-x="724" d="M66 0v627h73v-148l148 148h221l108 -111v-516h-73v487l-66 66h-174l-164 -164v-389h-73zM149 774l144 105l94 -60l119 57l24 -28l-149 -103l-92 58l-115 -56z" />
<glyph unicode="&#xf2;" horiz-adv-x="761" d="M68 111v405l110 111h369l110 -111v-405l-110 -111h-369zM141 141l68 -67h307l68 67v344l-68 68h-307l-68 -68v-344zM251 828l62 61l160 -160l-27 -24z" />
<glyph unicode="&#xf3;" horiz-adv-x="761" d="M68 111v405l110 111h369l110 -111v-405l-110 -111h-369zM141 141l68 -67h307l68 67v344l-68 68h-307l-68 -68v-344zM253 729l158 160l62 -61l-195 -123z" />
<glyph unicode="&#xf4;" horiz-adv-x="761" d="M68 111v405l110 111h369l110 -111v-405l-110 -111h-369zM141 141l68 -67h307l68 67v344l-68 68h-307l-68 -68v-344zM180 731l160 158h47l158 -158l-25 -26l-157 104l-156 -104z" />
<glyph unicode="&#xf5;" d="M68 111v405l110 111h369l110 -111v-405l-110 -111h-369zM141 141l68 -67h307l68 67v344l-68 68h-307l-68 -68v-344zM172 774l144 105l94 -60l119 57l24 -28l-149 -103l-92 58l-115 -56z" />
<glyph unicode="&#xf6;" horiz-adv-x="761" d="M68 111v405l110 111h369l110 -111v-405l-110 -111h-369zM141 141l68 -67h307l68 67v344l-68 68h-307l-68 -68v-344zM192 784v56l39 39h56l39 -39v-56l-39 -39h-56zM399 784v56l39 39h55l39 -39v-56l-39 -39h-55z" />
<glyph unicode="&#xf7;" horiz-adv-x="829" d="M61 401v74h664v-74h-664zM338 250v45l33 33h47l31 -33v-45l-31 -33h-47zM338 582v45l33 32h47l31 -32v-45l-31 -33h-47z" />
<glyph unicode="&#xf8;" d="M66 10l45 58l-45 43v405l110 111h369l12 -11l39 50l57 -48l-45 -55l47 -47v-405l-110 -111h-369l-12 14l-41 -51zM139 141l19 -16l348 428h-299l-68 -68v-344zM211 74h303l68 67v344l-21 21z" />
<glyph unicode="&#xf9;" horiz-adv-x="722" d="M68 109v516h73v-486l68 -67h172l166 166v387h74v-625h-74v147l-148 -147h-221zM233 828l62 61l160 -160l-27 -24z" />
<glyph unicode="&#xfa;" horiz-adv-x="722" d="M68 109v516h73v-486l68 -67h172l166 166v387h74v-625h-74v147l-148 -147h-221zM235 729l158 160l62 -61l-195 -123z" />
<glyph unicode="&#xfb;" horiz-adv-x="722" d="M68 109v516h73v-486l68 -67h172l166 166v387h74v-625h-74v147l-148 -147h-221zM161 731l160 158h47l158 -158l-25 -26l-157 104l-156 -104z" />
<glyph unicode="&#xfc;" horiz-adv-x="722" d="M68 109v516h73v-486l68 -67h172l166 166v387h74v-625h-74v147l-148 -147h-221zM174 784v56l39 39h56l39 -39v-56l-39 -39h-56zM381 784v56l39 39h55l39 -39v-56l-39 -39h-55z" />
<glyph unicode="&#xfd;" horiz-adv-x="761" d="M68 111v516h73v-486l68 -67h209l166 166v387h73v-774l-110 -111h-185v74h154l68 67v264l-148 -147h-258zM253 729l158 160l62 -61l-195 -123z" />
<glyph unicode="&#xfe;" horiz-adv-x="761" d="M68 -221v1069h73v-258l37 37h369l108 -111v-405l-110 -111h-367l-37 37v-258h-73zM141 141l66 -67h309l66 67v344l-66 68h-307l-68 -68v-344z" />
<glyph unicode="&#xff;" horiz-adv-x="761" d="M68 111v516h73v-486l68 -67h209l166 166v387h73v-774l-110 -111h-185v74h154l68 67v264l-148 -147h-258zM192 784v56l39 39h56l39 -39v-56l-39 -39h-56zM399 784v56l39 39h55l39 -39v-56l-39 -39h-55z" />
<glyph unicode="&#x152;" horiz-adv-x="1239" d="M66 111v663l110 111h959v-74h-412l-68 -68v-264h443v-73h-443v-265l68 -67h412v-74h-959zM139 141l68 -67h411l-36 37v663l36 37h-411l-68 -68v-602z" />
<glyph unicode="&#x153;" horiz-adv-x="1273" d="M66 111v405l110 111h369l73 -74l74 74h369l110 -111v-240h-516v-135l68 -67h301v-74h-332l-74 74l-73 -74h-369zM139 141l68 -67h307l68 67v344l-68 68h-307l-68 -68v-344zM655 350h443v135l-68 68h-307l-68 -68v-135z" />
<glyph unicode="&#x178;" horiz-adv-x="757" d="M66 627v256h73v-221l223 -191l220 188v224h73v-258l-258 -219v-406h-73v408zM190 1046v56l39 39h56l39 -39v-56l-39 -39h-56zM397 1046v56l39 39h55l39 -39v-56l-39 -39h-55z" />
<glyph unicode="&#x2c6;" horiz-adv-x="530" d="M61 958l160 158h47l158 -158l-25 -26l-157 104l-156 -104z" />
<glyph unicode="&#x2dc;" horiz-adv-x="493" d="M59 793l103 102q31 -18 55 -33q23 -12 39 -22.5t20 -12.5l68 68l45 -45l-102 -102q-31 18 -56 32q-23 12 -40 22.5t-19 12.5l-68 -67z" />
<glyph unicode="&#x2000;" horiz-adv-x="682" />
<glyph unicode="&#x2001;" horiz-adv-x="1365" />
<glyph unicode="&#x2002;" horiz-adv-x="682" />
<glyph unicode="&#x2003;" horiz-adv-x="1365" />
<glyph unicode="&#x2004;" horiz-adv-x="455" />
<glyph unicode="&#x2005;" horiz-adv-x="341" />
<glyph unicode="&#x2006;" horiz-adv-x="227" />
<glyph unicode="&#x2007;" horiz-adv-x="227" />
<glyph unicode="&#x2008;" horiz-adv-x="170" />
<glyph unicode="&#x2009;" horiz-adv-x="273" />
<glyph unicode="&#x200a;" horiz-adv-x="75" />
<glyph unicode="&#x2010;" horiz-adv-x="540" d="M70 295v74h368v-74h-368z" />
<glyph unicode="&#x2011;" horiz-adv-x="540" d="M70 295v74h368v-74h-368z" />
<glyph unicode="&#x2012;" horiz-adv-x="540" d="M70 295v74h368v-74h-368z" />
<glyph unicode="&#x2013;" horiz-adv-x="686" d="M68 406v73h514v-73h-514z" />
<glyph unicode="&#x2014;" horiz-adv-x="1050" d="M63 406v73h883v-73h-883z" />
<glyph unicode="&#x2018;" horiz-adv-x="311" d="M61 707v69l111 146h37l-55 -111h10l45 -43v-61l-45 -43h-60z" />
<glyph unicode="&#x2019;" horiz-adv-x="311" d="M61 664l56 110h-13l-43 43v62l43 43h62l43 -43v-68l-111 -147h-37z" />
<glyph unicode="&#x201a;" horiz-adv-x="309" d="M59 43v59l43 45h62l43 -45v-67l-111 -146h-37l56 111h-13z" />
<glyph unicode="&#x201c;" horiz-adv-x="530" d="M59 707v67l111 146h37l-55 -111h10l45 -43v-59l-45 -45h-60zM279 707v67l110 146h37l-55 -111h12l43 -43v-59l-43 -45h-59z" />
<glyph unicode="&#x201d;" horiz-adv-x="530" d="M57 664l56 110h-13l-43 43v62l43 43h62l43 -43v-70l-111 -145h-37zM279 664l55 110h-12l-43 43v62l43 43h61l43 -43v-70l-111 -145h-36z" />
<glyph unicode="&#x201e;" horiz-adv-x="532" d="M59 43v59l43 45h62l43 -45v-67l-111 -146h-37l56 111h-13zM281 43v59l43 45h61l43 -45v-67l-111 -146h-36l55 111h-12z" />
<glyph unicode="&#x2022;" horiz-adv-x="460" d="M63 381v121l87 88h122l86 -88v-121l-86 -86h-122z" />
<glyph unicode="&#x2026;" horiz-adv-x="972" d="M59 43v59l43 45h62l43 -45v-59l-43 -43h-62zM391 43v59l43 45h62l43 -45v-59l-43 -43h-62zM723 43v59l43 45h61l43 -45v-59l-43 -43h-61z" />
<glyph unicode="&#x202f;" horiz-adv-x="273" />
<glyph unicode="&#x2039;" horiz-adv-x="391" d="M68 303v74l221 201v-99l-148 -135v-10l148 -135v-99z" />
<glyph unicode="&#x203a;" horiz-adv-x="391" d="M68 100v99l147 135v8l-147 137v99l221 -203v-74z" />
<glyph unicode="&#x205f;" horiz-adv-x="341" />
<glyph unicode="&#x20ac;" horiz-adv-x="907" d="M66 293v74h73v147h-73v74h73v184l111 111h442l111 -111v-74h-74v43l-67 68h-381l-68 -68v-153h405v-74h-405v-147h405v-74h-405v-154l68 -65h381l67 65v43h74v-71l-111 -111h-442l-111 109v184h-73z" />
<glyph unicode="&#x2122;" horiz-adv-x="1126" d="M74 819v64h358v-64h-147v-442h-64v442h-147zM516 377v506h66l8 -19q8 -20 21.5 -50t29.5 -67.5t35 -76.5q41 -94 94 -211q51 117 92 211q18 39 34.5 77.5t30 68.5t21.5 48l8 19h66v-506h-64q0 4 -1 57t-1 119v172q-41 -98 -75 -174q-16 -33 -29.5 -63.5t-24.5 -55.5 q-12 -29 -24 -55h-68l-7 15q-7 16 -18.5 40.5t-24.5 56t-28 64.5l-77 176v-352h-64z" />
<glyph unicode="&#x25fc;" horiz-adv-x="624" d="M0 0v625h625v-625h-625z" />
</font>
</defs>
</svg>
